<svg xmlns="http://www.w3.org/2000/svg" xmlns:xlink="http://www.w3.org/1999/xlink" xmlns:a="http://ns.adobe.com/AdobeSVGViewerExtensions/3.0/" version="1.1" x="0px" y="0px" width="100px" height="100px" viewBox="-2 -5.513 100 100" overflow="visible" enable-background="new -2 -5.513 100 100" xml:space="preserve">
<defs>
</defs>
<path fill="#000000" d="M0,77.854l27.805,11.121V11.122L0,0V77.854z M8.22,26.938l3.835,1.363l1.082,2.234  c0.315,0.676,0.609,1.321,0.902,1.966l0.044,0.016c0.293-0.504,0.563-0.949,0.857-1.386l0.97-1.46l3.721,1.323L16,34.957l3.676,7.08  l-3.878-1.379l-1.106-2.377c-0.316-0.653-0.586-1.313-0.857-1.973l-0.067-0.025c-0.27,0.49-0.563,0.928-0.835,1.373l-1.036,1.616  L8.13,37.935l3.743-4.286L8.22,26.938z"/>
<polygon fill="#000000" points="68.195,0 68.195,77.854 96,88.975 96,11.122 "/>
<polygon fill="#000000" points="31.317,88.975 64.683,77.854 64.683,0 31.317,11.122 "/>
</svg>