<svg xmlns="http://www.w3.org/2000/svg" xmlns:xlink="http://www.w3.org/1999/xlink" version="1.1" id="Layer_1" x="0px" y="0px" width="100px" height="100px" viewBox="0 0 100 100" enable-background="new 0 0 100 100" xml:space="preserve">
<g>
	<path d="M56.514,71.866c-0.553,0-1.001-0.448-1.001-1.001V14.513c0-0.553,0.448-1,1.001-1c0.551,0,0.999,0.447,0.999,1v56.353   C57.513,71.418,57.064,71.866,56.514,71.866z"/>
</g>
<g>
	<g>
		<path d="M18.875,43.261c-0.054,0-0.108-0.007-0.163-0.021c-0.357-0.09-0.575-0.451-0.485-0.809    c0.056-0.223,0.117-0.447,0.184-0.672c0.104-0.353,0.474-0.555,0.829-0.449c0.354,0.105,0.554,0.477,0.45,0.829    c-0.061,0.205-0.117,0.411-0.168,0.615C19.446,43.058,19.174,43.261,18.875,43.261z"/>
	</g>
	<g>
		<path d="M18.475,50.814c-0.352,0-0.645-0.274-0.666-0.628c-0.024-0.423-0.047-0.848-0.065-1.273    c-0.016-0.367,0.27-0.68,0.638-0.694c0.37-0.016,0.679,0.27,0.695,0.637c0.019,0.42,0.041,0.838,0.065,1.256    c0.021,0.367-0.261,0.681-0.628,0.703C18.5,50.814,18.487,50.814,18.475,50.814z M18.383,47.021c-0.007,0-0.014,0-0.021,0    c-0.369-0.013-0.657-0.32-0.646-0.688c0.014-0.433,0.039-0.866,0.079-1.303c0.034-0.366,0.354-0.634,0.725-0.604    c0.367,0.034,0.637,0.358,0.604,0.725c-0.038,0.41-0.061,0.818-0.074,1.224C19.038,46.735,18.742,47.021,18.383,47.021z"/>
	</g>
	<g>
		<path d="M30.726,69.043c-0.358,0-0.654-0.283-0.667-0.645c-0.012-0.368,0.276-0.677,0.645-0.688    c0.41-0.015,0.811-0.047,1.192-0.101c0.359-0.055,0.701,0.204,0.751,0.569c0.05,0.365-0.205,0.702-0.569,0.751    c-0.426,0.06-0.874,0.098-1.33,0.112C30.742,69.043,30.734,69.043,30.726,69.043z M28.204,68.902    c-0.031,0-0.062-0.002-0.094-0.007c-0.437-0.062-0.875-0.143-1.301-0.24c-0.359-0.082-0.583-0.44-0.5-0.799    c0.083-0.359,0.441-0.584,0.799-0.5c0.39,0.089,0.789,0.163,1.188,0.219c0.364,0.051,0.619,0.389,0.567,0.753    C28.816,68.661,28.53,68.902,28.204,68.902z M34.42,68.269c-0.252,0-0.494-0.143-0.606-0.387c-0.154-0.335-0.009-0.73,0.327-0.885    c0.337-0.156,0.663-0.349,0.967-0.574c0.295-0.221,0.713-0.157,0.932,0.139s0.157,0.713-0.139,0.934    c-0.377,0.279-0.782,0.52-1.202,0.713C34.609,68.25,34.513,68.269,34.42,68.269z M24.561,67.873c-0.095,0-0.19-0.02-0.281-0.062    c-0.419-0.194-0.821-0.428-1.196-0.69c-0.302-0.211-0.375-0.627-0.163-0.929c0.211-0.302,0.627-0.375,0.929-0.163    c0.311,0.219,0.645,0.411,0.993,0.573c0.333,0.154,0.479,0.551,0.323,0.885C25.052,67.73,24.812,67.873,24.561,67.873z     M37.221,65.783c-0.129,0-0.259-0.037-0.374-0.114c-0.305-0.206-0.385-0.621-0.178-0.927c0.21-0.311,0.41-0.646,0.612-1.025    c0.171-0.325,0.576-0.449,0.901-0.276c0.326,0.173,0.449,0.576,0.277,0.901c-0.223,0.422-0.448,0.798-0.685,1.148    C37.646,65.681,37.436,65.783,37.221,65.783z M21.68,65.468c-0.206,0-0.409-0.094-0.54-0.273c-0.257-0.354-0.5-0.738-0.721-1.143    c-0.177-0.324-0.058-0.729,0.266-0.905s0.729-0.058,0.905,0.265c0.194,0.355,0.406,0.69,0.629,0.997    c0.217,0.298,0.151,0.715-0.146,0.933C21.953,65.427,21.816,65.468,21.68,65.468z M38.9,62.386c-0.08,0-0.162-0.015-0.241-0.046    c-0.344-0.133-0.514-0.521-0.381-0.863c0.153-0.391,0.298-0.784,0.441-1.174c0.126-0.346,0.512-0.522,0.855-0.396    c0.346,0.126,0.523,0.51,0.397,0.855c-0.146,0.398-0.294,0.799-0.45,1.197C39.419,62.224,39.167,62.386,38.9,62.386z     M20.022,62.069c-0.282,0-0.543-0.18-0.634-0.462c-0.133-0.411-0.252-0.831-0.36-1.259c-0.09-0.355,0.125-0.719,0.482-0.81    c0.355-0.09,0.72,0.126,0.81,0.483c0.102,0.398,0.213,0.791,0.337,1.175c0.113,0.351-0.079,0.727-0.43,0.84    C20.159,62.06,20.09,62.069,20.022,62.069z M40.213,58.821c-0.074,0-0.15-0.012-0.224-0.038c-0.347-0.123-0.528-0.505-0.405-0.853    l0.422-1.191c0.123-0.347,0.506-0.528,0.851-0.405c0.348,0.122,0.529,0.504,0.406,0.851l-0.422,1.193    C40.745,58.651,40.486,58.821,40.213,58.821z M19.169,58.374c-0.322,0-0.604-0.233-0.658-0.562    c-0.068-0.422-0.129-0.847-0.185-1.273c-0.047-0.365,0.21-0.699,0.576-0.747c0.36-0.041,0.699,0.21,0.747,0.576    c0.054,0.413,0.113,0.823,0.179,1.232c0.059,0.363-0.188,0.706-0.552,0.765C19.24,58.371,19.205,58.374,19.169,58.374z     M41.506,55.253c-0.08,0-0.162-0.015-0.241-0.045c-0.344-0.134-0.514-0.52-0.381-0.863c0.155-0.399,0.315-0.797,0.482-1.192    c0.144-0.339,0.535-0.496,0.875-0.354c0.339,0.144,0.498,0.535,0.354,0.875c-0.162,0.382-0.316,0.767-0.467,1.153    C42.026,55.091,41.773,55.253,41.506,55.253z M18.724,54.603c-0.343,0-0.635-0.263-0.664-0.611    c-0.036-0.424-0.067-0.848-0.096-1.272c-0.026-0.366,0.252-0.686,0.619-0.71c0.369-0.012,0.686,0.251,0.711,0.619    c0.028,0.418,0.06,0.836,0.095,1.252c0.031,0.367-0.242,0.689-0.609,0.72C18.761,54.603,18.742,54.603,18.724,54.603z     M43.062,51.792c-0.106,0-0.213-0.025-0.313-0.078c-0.325-0.174-0.448-0.578-0.274-0.903c0.204-0.38,0.418-0.758,0.646-1.131    c0.191-0.313,0.602-0.416,0.917-0.222c0.314,0.19,0.414,0.602,0.222,0.915c-0.214,0.352-0.416,0.706-0.607,1.066    C43.532,51.664,43.301,51.792,43.062,51.792z M45.198,48.667c-0.164,0-0.329-0.061-0.458-0.182    c-0.268-0.253-0.281-0.674-0.029-0.942c0.304-0.323,0.63-0.634,0.969-0.923c0.279-0.24,0.701-0.207,0.939,0.073    c0.239,0.28,0.207,0.701-0.073,0.94c-0.302,0.259-0.592,0.535-0.864,0.823C45.552,48.597,45.375,48.667,45.198,48.667z     M48.215,46.393c-0.246,0-0.483-0.137-0.599-0.373c-0.163-0.33-0.026-0.73,0.304-0.893c0.43-0.211,0.861-0.381,1.284-0.504    c0.355-0.104,0.724,0.099,0.827,0.452c0.104,0.354-0.1,0.725-0.453,0.828c-0.349,0.103-0.708,0.242-1.069,0.42    C48.415,46.37,48.314,46.393,48.215,46.393z"/>
	</g>
	<g>
		<path d="M52.531,46.108c-0.102,0-0.206-0.023-0.303-0.073c-0.16-0.082-0.329-0.148-0.502-0.198    c-0.354-0.103-0.558-0.473-0.455-0.827c0.103-0.354,0.472-0.557,0.826-0.454c0.255,0.073,0.502,0.172,0.737,0.293    c0.329,0.167,0.458,0.569,0.291,0.896C53.008,45.977,52.774,46.108,52.531,46.108z"/>
	</g>
</g>
<g>
	<g>
		<path d="M60.064,49.858c-0.192,0-0.385-0.084-0.517-0.246c-0.148-0.182-0.291-0.368-0.429-0.561    c-0.216-0.299-0.148-0.716,0.15-0.931s0.717-0.147,0.932,0.15c0.122,0.171,0.25,0.337,0.381,0.499    c0.233,0.286,0.188,0.706-0.097,0.939C60.361,49.809,60.213,49.858,60.064,49.858z"/>
	</g>
	<g>
		<path d="M66.333,56.219c-0.213,0-0.421-0.1-0.55-0.287c-0.253-0.366-0.538-0.726-0.875-1.101c-0.247-0.273-0.223-0.695,0.05-0.941    c0.274-0.247,0.696-0.223,0.942,0.051c0.375,0.417,0.695,0.821,0.98,1.232c0.208,0.304,0.133,0.719-0.171,0.929    C66.595,56.181,66.463,56.219,66.333,56.219z M63.258,52.985c-0.157,0-0.315-0.056-0.441-0.167l-0.228-0.2    c-0.298-0.266-0.598-0.529-0.893-0.797c-0.272-0.248-0.294-0.669-0.046-0.943c0.245-0.272,0.668-0.294,0.941-0.046    c0.292,0.264,0.587,0.525,0.881,0.785l0.228,0.201c0.275,0.245,0.301,0.665,0.057,0.942    C63.626,52.909,63.441,52.985,63.258,52.985z"/>
	</g>
	<g>
		<path d="M75.17,68.259c-0.345,0-0.636-0.267-0.664-0.615c-0.028-0.367,0.245-0.688,0.613-0.717    c0.43-0.033,0.869-0.121,1.308-0.261c0.349-0.113,0.726,0.081,0.837,0.433c0.112,0.351-0.081,0.726-0.432,0.837    c-0.535,0.172-1.077,0.279-1.609,0.321C75.204,68.258,75.187,68.259,75.17,68.259z M72.271,67.73    c-0.096,0-0.192-0.021-0.284-0.062c-0.481-0.228-0.95-0.519-1.392-0.867c-0.289-0.228-0.339-0.647-0.11-0.937    c0.228-0.289,0.646-0.338,0.936-0.11c0.362,0.285,0.744,0.522,1.135,0.707c0.332,0.156,0.477,0.554,0.319,0.887    C72.761,67.589,72.521,67.73,72.271,67.73z M79.226,66.534c-0.194,0-0.386-0.084-0.518-0.246c-0.232-0.286-0.19-0.706,0.096-0.938    c0.354-0.288,0.691-0.609,0.999-0.956c0.248-0.275,0.669-0.297,0.942-0.053c0.275,0.245,0.298,0.667,0.053,0.941    c-0.355,0.398-0.743,0.77-1.151,1.102C79.522,66.485,79.374,66.534,79.226,66.534z M69.123,64.666    c-0.244,0-0.479-0.134-0.596-0.366c-0.226-0.445-0.418-0.932-0.591-1.485c-0.11-0.352,0.087-0.726,0.438-0.836    c0.351-0.106,0.726,0.087,0.835,0.438c0.15,0.483,0.316,0.902,0.508,1.282c0.166,0.329,0.034,0.73-0.295,0.896    C69.327,64.644,69.225,64.666,69.123,64.666z M81.911,63.01c-0.09,0-0.181-0.019-0.268-0.057c-0.338-0.148-0.49-0.543-0.342-0.88    c0.188-0.428,0.338-0.865,0.444-1.299c0.088-0.358,0.448-0.577,0.807-0.489s0.576,0.448,0.489,0.808    c-0.125,0.509-0.299,1.02-0.52,1.519C82.412,62.861,82.168,63.01,81.911,63.01z M67.892,60.381c-0.309,0-0.585-0.215-0.652-0.528    c-0.089-0.42-0.198-0.916-0.337-1.409c-0.1-0.355,0.107-0.723,0.463-0.822c0.354-0.1,0.723,0.108,0.821,0.463    c0.148,0.529,0.264,1.051,0.357,1.491c0.077,0.36-0.153,0.715-0.513,0.791C67.984,60.376,67.938,60.381,67.892,60.381z     M82.532,58.641c-0.321,0-0.604-0.232-0.657-0.561c-0.072-0.441-0.192-0.876-0.36-1.289c-0.137-0.343,0.028-0.73,0.37-0.869    c0.342-0.136,0.729,0.027,0.868,0.369c0.204,0.507,0.352,1.036,0.438,1.576c0.059,0.364-0.188,0.705-0.551,0.765    C82.604,58.638,82.567,58.641,82.532,58.641z M80.58,54.674c-0.201,0-0.399-0.091-0.531-0.263c-0.306-0.4-0.616-0.778-0.917-1.143    c-0.234-0.283-0.194-0.703,0.09-0.938c0.284-0.235,0.705-0.194,0.938,0.088c0.312,0.378,0.633,0.769,0.949,1.184    c0.223,0.292,0.167,0.711-0.126,0.935C80.863,54.63,80.721,54.674,80.58,54.674z M77.864,51.125c-0.23,0-0.455-0.119-0.578-0.334    c-0.302-0.522-0.512-1.023-0.644-1.533c-0.093-0.357,0.121-0.721,0.478-0.813c0.355-0.095,0.721,0.122,0.812,0.479    c0.102,0.393,0.269,0.786,0.509,1.203c0.184,0.319,0.074,0.728-0.245,0.911C78.091,51.097,77.977,51.125,77.864,51.125z"/>
	</g>
	<g>
		<path d="M77.463,46.792c-0.07,0-0.141-0.011-0.211-0.034c-0.35-0.116-0.538-0.493-0.422-0.844c0.072-0.217,0.155-0.44,0.252-0.671    c0.142-0.34,0.533-0.5,0.872-0.357c0.34,0.142,0.5,0.532,0.358,0.872c-0.083,0.199-0.155,0.391-0.217,0.577    C78.003,46.616,77.742,46.792,77.463,46.792z"/>
	</g>
</g>
<g>
	<g>
		<path d="M81.4,41.597c-0.194,0-0.386-0.084-0.518-0.246c-0.282-0.347-0.562-0.671-0.846-0.983    c-0.248-0.272-0.228-0.694,0.045-0.942c0.272-0.246,0.693-0.227,0.942,0.046c0.299,0.33,0.595,0.673,0.893,1.039    c0.232,0.285,0.189,0.705-0.097,0.938C81.696,41.548,81.548,41.597,81.4,41.597z M78.645,38.701c-0.162,0-0.324-0.06-0.453-0.179    c-0.31-0.287-0.634-0.581-0.978-0.888c-0.274-0.247-0.297-0.668-0.052-0.942c0.246-0.275,0.669-0.297,0.941-0.053    c0.351,0.313,0.679,0.613,0.995,0.905c0.27,0.25,0.286,0.673,0.036,0.942C79.003,38.629,78.824,38.701,78.645,38.701z"/>
	</g>
	<g>
		<path d="M77.869,41.75c-0.069,0-0.14-0.011-0.209-0.034c-0.35-0.115-0.54-0.492-0.424-0.842c0.123-0.374,0.382-0.826,0.768-1.341    c0.222-0.296,0.639-0.355,0.935-0.135c0.295,0.221,0.354,0.639,0.134,0.934c-0.287,0.384-0.495,0.733-0.57,0.96    C78.409,41.571,78.148,41.75,77.869,41.75z M80.394,38.686c-0.199,0-0.396-0.089-0.527-0.259c-0.227-0.29-0.173-0.709,0.118-0.936    c0.736-0.571,1.288-0.776,1.756-0.657c0.356,0.089,0.574,0.451,0.484,0.81c-0.084,0.338-0.418,0.551-0.754,0.495    c-0.045,0.014-0.252,0.083-0.67,0.407C80.68,38.64,80.536,38.686,80.394,38.686z"/>
	</g>
</g>
<path d="M92.701,85.87c-0.124,0-0.248-0.017-0.37-0.052L56.389,75.451l-48.87,8.178c-0.386,0.065-0.782-0.044-1.082-0.298  s-0.472-0.626-0.472-1.019V19.186c0-0.652,0.471-1.208,1.114-1.316l49.168-8.227c0.196-0.033,0.397-0.021,0.59,0.034L93.07,20.128  c0.571,0.165,0.965,0.688,0.965,1.281v63.126c0,0.419-0.197,0.814-0.532,1.066C93.269,85.778,92.986,85.87,92.701,85.87z   M56.467,72.751c0.126,0,0.249,0.019,0.37,0.053l34.53,9.96v-60.35l-34.979-10.09L8.633,20.315v60.422l47.614-7.967  C56.32,72.758,56.394,72.751,56.467,72.751z"/>
</svg>